<svg xmlns="http://www.w3.org/2000/svg" width="177.628" height="40" viewBox="0 0 177.628 40"><defs><style>.a{fill:#fff;}</style></defs><path class="a" d="M90.744,19.878H94.9V39.911H90.744Z" transform="translate(-47.921 -10.606)"/><path class="a" d="M104.324,39.49a7.279,7.279,0,1,1,7.278,7.279h-.041a7.182,7.182,0,0,1-7.238-7.125C104.323,39.593,104.324,39.541,104.324,39.49Zm10.426,0a3.161,3.161,0,1,0-3.161,3.244,3.078,3.078,0,0,0,3.138-3.017c0-.076,0-.151,0-.227Z" transform="translate(-55.131 -17.11)"/><path class="a" d="M152.73,32.743V45.789c0,4.6-3.605,6.558-7.251,6.558a6.933,6.933,0,0,1-6.5-3.327L142.485,47a3.147,3.147,0,0,0,3.133,1.733,2.773,2.773,0,0,0,3.091-2.413,2.812,2.812,0,0,0,.015-.526V44.528a4.893,4.893,0,0,1-4.007,1.774,6.932,6.932,0,1,1,0-13.863,4.9,4.9,0,0,1,4.007,1.775V32.826Zm-4.006,6.585a3.327,3.327,0,1,0-3.463,3.186l.136,0a3.105,3.105,0,0,0,3.32-2.874C148.724,39.538,148.726,39.433,148.724,39.328Z" transform="translate(-72.816 -17.421)"/><path class="a" d="M173.972,39.49a7.278,7.278,0,1,1,7.278,7.279h-.014a7.2,7.2,0,0,1-7.265-7.125C173.971,39.593,173.971,39.541,173.972,39.49Zm10.425,0a3.161,3.161,0,1,0-3.147,3.244,3.078,3.078,0,0,0,3.137-3.017c0-.076,0-.151,0-.227Z" transform="translate(-91.937 -17.11)"/><path class="a" d="M208.419,22.695a2.468,2.468,0,1,1,2.468,2.468h0A2.5,2.5,0,0,1,208.419,22.695Zm.4,3.674h4.159V40.094h-4.159Z" transform="translate(-110.07 -10.79)"/><path class="a" d="M238.9,39.522a6.932,6.932,0,0,1-6.569,7.276l-.043,0a5.156,5.156,0,0,1-4.159-1.677V51.9h-4.159V32.66h4.159v1.289a5.144,5.144,0,0,1,4.159-1.663,6.932,6.932,0,0,1,6.613,7.237Zm-4.16,0a3.272,3.272,0,1,0-3.258,3.355,3.133,3.133,0,0,0,3.263-3A2.979,2.979,0,0,0,234.745,39.522Z" transform="translate(-118.364 -17.337)"/><path class="a" d="M269.021,42.274c0,3.161-2.773,4.506-5.712,4.506a6.018,6.018,0,0,1-5.906-3.272l3.577-2.024a2.245,2.245,0,0,0,2.315,1.622c.985,0,1.484-.3,1.484-.86,0-1.511-6.752-.707-6.752-5.462,0-2.994,2.523-4.492,5.379-4.492a6.017,6.017,0,0,1,5.435,2.925L265.264,37.1A2.023,2.023,0,0,0,263.42,35.9c-.721,0-1.151.277-1.151.762C262.269,38.24,269.021,37.2,269.021,42.274Z" transform="translate(-135.999 -17.149)"/><path class="a" d="M298.822,33.083V46.808h-4.159V45.519a4.725,4.725,0,0,1-3.909,1.705c-2.773,0-5.144-1.982-5.144-5.684V33.083h4.159v7.833a2.274,2.274,0,0,0,2.037,2.489,2.349,2.349,0,0,0,.362.008c1.5,0,2.551-.888,2.551-2.773V33.083Z" transform="translate(-150.919 -17.568)"/><path class="a" d="M339.957,37.953v8.43H335.8V38.314c0-1.386-.652-2.246-1.969-2.246s-2.149.957-2.149,2.579v7.736H327.52V38.314c0-1.386-.651-2.246-1.968-2.246s-2.149.957-2.149,2.579v7.736h-4.159V32.658H323.4v1.261a4.242,4.242,0,0,1,3.688-1.636,4.062,4.062,0,0,1,3.591,1.8,4.52,4.52,0,0,1,3.979-1.8C337.9,32.284,339.957,34.529,339.957,37.953Z" transform="translate(-168.872 -17.135)"/><path class="a" d="M18.577,5.822V0H0V40H18.577V34.178a14.179,14.179,0,1,1,0-28.356Z"/><path class="a" d="M38.886,12.333V40.549a14.11,14.11,0,1,0,0-28.216Z" transform="translate(-20.309 -6.441)"/><path class="a" d="M366.578,20.14a3.05,3.05,0,1,1-3.05,3.05A3.05,3.05,0,0,1,366.578,20.14Z" transform="translate(-192 -10.653)"/></svg>