<?xml version="1.0" encoding="utf-8"?>
<!-- Generator: Adobe Illustrator 23.0.3, SVG Export Plug-In . SVG Version: 6.00 Build 0)  -->
<svg version="1.1" id="Layer_1" xmlns="http://www.w3.org/2000/svg" xmlns:xlink="http://www.w3.org/1999/xlink" x="0px" y="0px"
	 viewBox="0 0 177.6 40" style="enable-background:new 0 0 177.6 40;" xml:space="preserve">
<style type="text/css">
	.st0{fill:#FFFFFF;}
</style>
<path class="st0" d="M42.8,9.3H47v20h-4.2V9.3z"/>
<path class="st0" d="M49.2,22.4c0-4,3.3-7.3,7.3-7.3s7.3,3.3,7.3,7.3s-3.3,7.3-7.3,7.3c0,0,0,0,0,0h0c-4,0-7.2-3.2-7.2-7.1
	C49.2,22.5,49.2,22.4,49.2,22.4z M59.6,22.4c0-1.7-1.5-3.1-3.2-3.1c-1.7,0-3.1,1.5-3.1,3.2c0,1.7,1.4,3.1,3.2,3.1
	c1.7,0,3.1-1.3,3.1-3c0,0,0,0,0,0C59.6,22.5,59.6,22.5,59.6,22.4L59.6,22.4z"/>
<path class="st0" d="M79.9,15.3v13c0,4.6-3.6,6.6-7.3,6.6c-2.6,0.2-5.1-1.1-6.5-3.3l3.5-2c0.6,1.2,1.8,1.9,3.1,1.7
	c1.5,0.2,2.9-0.9,3.1-2.4c0-0.2,0-0.4,0-0.5v-1.3c-1,1.2-2.5,1.8-4,1.8c-3.8,0-7-3-7-6.8c0-3.8,3-7,6.8-7c0.1,0,0.1,0,0.2,0
	c1.5-0.1,3,0.6,4,1.8v-1.4L79.9,15.3z M75.9,21.9c0.1-1.8-1.4-3.4-3.2-3.5c-1.8-0.1-3.4,1.4-3.5,3.2c-0.1,1.8,1.3,3.4,3.2,3.5h0.1
	c1.7,0.1,3.2-1.2,3.3-2.9c0,0,0,0,0,0C75.9,22.1,75.9,22,75.9,21.9z"/>
<path class="st0" d="M82,22.4c0-4,3.3-7.3,7.3-7.3c4,0,7.3,3.3,7.3,7.3c0,4-3.3,7.3-7.3,7.3h0c-4,0-7.2-3.2-7.3-7.1
	C82,22.5,82,22.4,82,22.4z M92.5,22.4c0-1.7-1.5-3.1-3.2-3.1c-1.7,0-3.1,1.5-3.1,3.2c0,1.7,1.5,3.1,3.2,3.1c1.7,0,3.1-1.3,3.1-3
	C92.4,22.5,92.4,22.5,92.5,22.4L92.5,22.4z"/>
<path class="st0" d="M98.3,11.9c0-1.4,1.1-2.5,2.5-2.5c1.4,0,2.5,1.1,2.5,2.5c0,1.4-1.1,2.5-2.5,2.5l0,0
	C99.5,14.4,98.4,13.3,98.3,11.9z M98.7,15.6h4.2v13.7h-4.2V15.6z"/>
<path class="st0" d="M120.5,22.2c0.2,3.8-2.7,7.1-6.6,7.3h0c-1.6,0.1-3.1-0.5-4.2-1.7v6.8h-4.2V15.3h4.2v1.3
	c1.1-1.2,2.6-1.8,4.2-1.7C117.7,15.1,120.7,18.4,120.5,22.2C120.5,22.2,120.5,22.2,120.5,22.2L120.5,22.2z M116.4,22.2
	c0-1.8-1.5-3.2-3.4-3.2c-1.8,0-3.2,1.5-3.2,3.4c0,1.8,1.5,3.2,3.3,3.2c1.7,0.1,3.2-1.3,3.3-3c0,0,0,0,0,0
	C116.4,22.4,116.4,22.3,116.4,22.2L116.4,22.2z"/>
<path class="st0" d="M133,25.1c0,3.2-2.8,4.5-5.7,4.5c-2.5,0.2-4.8-1.1-5.9-3.3l3.6-2c0.3,1,1.3,1.7,2.3,1.6c1,0,1.5-0.3,1.5-0.9
	c0-1.5-6.8-0.7-6.8-5.5c0-3,2.5-4.5,5.4-4.5c2.2-0.1,4.3,1,5.4,2.9l-3.6,1.9c-0.3-0.7-1-1.2-1.8-1.2c-0.7,0-1.2,0.3-1.2,0.8
	C126.3,21.1,133,20.1,133,25.1z"/>
<path class="st0" d="M147.9,15.5v13.7h-4.2V28c-1,1.2-2.4,1.8-3.9,1.7c-2.8,0-5.1-2-5.1-5.7v-8.5h4.2v7.8c-0.1,1.2,0.8,2.4,2,2.5
	c0,0,0,0,0,0c0.1,0,0.2,0,0.4,0c1.5,0,2.6-0.9,2.6-2.8v-7.6H147.9z"/>
<path class="st0" d="M171.1,20.8v8.4h-4.2v-8.1c0-1.4-0.7-2.2-2-2.2s-2.1,1-2.1,2.6v7.7h-4.2v-8.1c0-1.4-0.7-2.2-2-2.2
	s-2.1,1-2.1,2.6v7.7h-4.2V15.5h4.2v1.3c0.9-1.1,2.3-1.7,3.7-1.6c1.4-0.1,2.8,0.6,3.6,1.8c0.9-1.2,2.4-1.9,4-1.8
	C169,15.1,171.1,17.4,171.1,20.8z"/>
<path class="st0" d="M18.6,5.8V0H0v40h18.6v-5.8c-7.8,0.1-14.3-6.2-14.3-14c-0.1-7.8,6.2-14.3,14-14.3C18.4,5.8,18.5,5.8,18.6,5.8z"
	/>
<path class="st0" d="M18.6,5.9v28.2c7.8,0.1,14.2-6.1,14.3-13.9S26.8,6,19.1,5.9C18.9,5.9,18.7,5.9,18.6,5.9z"/>
<path class="st0" d="M174.6,9.5c1.7,0,3.1,1.4,3.1,3s-1.4,3.1-3,3.1c-1.7,0-3.1-1.4-3.1-3c0,0,0,0,0,0
	C171.5,10.9,172.9,9.5,174.6,9.5z"/>
</svg>
